<svg id="svg" version="1.1" xmlns="http://www.w3.org/2000/svg" xmlns:xlink="http://www.w3.org/1999/xlink" width="400" height="400" viewBox="0, 0, 400,400"><g id="svgg"><path id="path0" d="M0.000 125.000 C 0.000 193.750,0.117 250.000,0.259 250.000 C 0.402 250.000,15.911 234.607,34.724 215.794 L 68.930 181.587 72.067 184.641 C 74.854 187.353,75.281 187.633,75.883 187.147 C 77.005 186.243,262.800 0.419,262.800 0.201 C 262.800 0.091,203.670 0.000,131.400 0.000 L 0.000 0.000 0.000 125.000 M178.300 96.737 C 125.115 149.937,81.600 193.634,81.600 193.842 C 81.600 194.051,82.860 195.472,84.400 197.000 C 85.940 198.528,87.200 199.964,87.200 200.190 C 87.200 200.416,67.580 220.221,43.600 244.200 L 0.000 287.799 0.000 318.299 C 0.000 335.075,0.135 348.800,0.300 348.800 C 0.466 348.800,42.270 307.130,93.200 256.200 C 144.130 205.270,186.021 163.600,186.291 163.600 C 186.561 163.600,187.742 164.545,188.914 165.700 C 190.087 166.855,191.425 168.129,191.889 168.531 C 192.727 169.258,193.196 168.797,273.267 88.731 C 317.561 44.439,355.584 6.355,357.761 4.100 L 361.721 0.000 318.360 0.005 L 275.000 0.010 178.300 96.737 M286.879 87.873 C 209.516 165.299,199.219 175.744,199.679 176.327 C 199.965 176.691,201.235 178.016,202.500 179.272 C 203.765 180.528,204.800 181.828,204.800 182.160 C 204.800 182.492,158.720 228.842,102.400 285.160 L 0.000 387.556 0.000 393.778 L 0.000 400.000 24.301 400.000 L 48.602 400.000 203.071 245.530 L 357.540 91.059 360.537 93.965 C 362.253 95.629,363.804 96.813,364.166 96.736 C 364.514 96.661,372.719 88.685,382.399 79.011 L 400.000 61.421 400.000 30.711 L 400.000 0.000 387.300 0.040 L 374.600 0.080 286.879 87.873 M385.093 88.713 C 377.232 96.585,370.800 103.264,370.800 103.556 C 370.800 103.847,372.098 105.423,373.683 107.059 L 376.567 110.033 231.883 254.717 C 152.308 334.293,87.200 399.535,87.200 399.700 C 87.200 399.865,100.783 400.000,117.385 400.000 L 147.570 400.000 195.316 352.300 C 221.577 326.065,244.506 303.192,246.270 301.470 L 249.478 298.340 252.343 301.171 C 253.919 302.729,255.387 304.047,255.606 304.101 C 255.824 304.156,288.402 271.809,328.001 232.220 L 400.000 160.239 400.000 117.320 C 400.000 93.714,399.862 74.400,399.693 74.400 C 399.523 74.400,392.953 80.841,385.093 88.713 M331.100 242.300 C 293.535 279.866,262.800 310.767,262.800 310.970 C 262.800 311.173,264.060 312.639,265.600 314.227 C 267.140 315.815,268.400 317.269,268.400 317.458 C 268.400 317.647,250.040 336.161,227.600 358.600 C 205.160 381.039,186.800 399.534,186.800 399.699 C 186.800 399.865,234.770 400.000,293.400 400.000 L 400.000 400.000 400.000 287.000 C 400.000 224.850,399.865 174.000,399.700 174.000 C 399.534 174.000,368.664 204.735,331.100 242.300 " stroke="none" fill="currentColor" fill-rule="evenodd"></path><path id="path1" d="M169.781 93.333 C 118.511 144.630,76.257 186.846,75.884 187.147 C 75.281 187.633,74.855 187.353,72.068 184.642 L 68.931 181.589 34.466 216.050 L 0.000 250.511 -0.000 269.155 L -0.000 287.799 43.600 244.200 C 67.580 220.221,87.200 200.416,87.200 200.190 C 87.200 199.964,85.940 198.528,84.400 197.000 C 82.860 195.472,81.600 194.051,81.600 193.842 C 81.600 193.634,125.025 150.020,178.100 96.923 C 231.175 43.825,274.675 0.296,274.767 0.191 C 274.858 0.086,272.248 0.015,268.967 0.033 L 263.000 0.067 169.781 93.333 M382.000 79.400 C 372.432 88.970,364.346 96.800,364.032 96.800 C 363.718 96.800,362.129 95.508,360.501 93.930 L 357.541 91.060 203.370 245.230 C 118.577 330.023,49.200 399.535,49.200 399.700 C 49.200 399.865,57.705 399.970,68.100 399.934 L 87.000 399.867 231.783 254.950 L 376.566 110.032 373.683 107.059 C 372.097 105.423,370.800 103.844,370.800 103.549 C 370.800 103.254,377.370 96.442,385.400 88.412 L 400.000 73.812 400.000 67.906 C 400.000 64.658,399.864 62.000,399.698 62.000 C 399.532 62.000,391.568 69.830,382.000 79.400 M329.919 230.305 C 291.705 268.527,259.376 300.848,258.078 302.130 L 255.717 304.459 252.592 301.405 L 249.467 298.351 246.265 301.475 C 244.504 303.194,221.629 326.020,195.432 352.200 L 147.800 399.800 167.001 399.904 L 186.202 400.008 227.201 359.002 C 249.750 336.448,268.261 317.814,268.335 317.592 C 268.410 317.369,267.195 315.872,265.635 314.264 C 264.076 312.655,262.800 311.172,262.800 310.968 C 262.800 310.764,293.670 279.729,331.400 242.001 L 400.000 173.406 400.000 167.103 C 400.000 163.636,399.865 160.802,399.700 160.805 C 399.535 160.808,368.134 192.083,329.919 230.305 " stroke="none" fill="#ffffff" fill-rule="evenodd" opacity="0"></path><path id="path2" d="M277.600 84.397 C 231.290 130.778,193.192 168.821,192.937 168.936 C 192.683 169.052,191.172 167.890,189.581 166.355 C 187.990 164.819,186.441 163.616,186.140 163.681 C 185.839 163.747,143.833 205.560,92.793 256.600 L -0.006 349.400 0.097 368.379 L 0.200 387.358 102.500 285.061 C 158.765 228.797,204.800 182.492,204.800 182.160 C 204.800 181.827,203.765 180.528,202.500 179.272 C 201.235 178.016,199.965 176.691,199.678 176.327 C 199.218 175.744,209.485 165.339,286.778 88.054 C 334.970 39.867,374.400 0.342,374.400 0.221 C 374.400 0.099,371.565 0.015,368.100 0.034 L 361.800 0.068 277.600 84.397 " stroke="none" fill="#04aaef" fill-rule="evenodd" opacity="0"></path></g></svg>