<?xml version="1.0" standalone="no"?>
<!DOCTYPE svg PUBLIC "-//W3C//DTD SVG 20010904//EN"
 "http://www.w3.org/TR/2001/REC-SVG-20010904/DTD/svg10.dtd">
<svg version="1.0" xmlns="http://www.w3.org/2000/svg"
 width="300.000000pt" height="300.000000pt" viewBox="0 0 300.000000 300.000000"
 preserveAspectRatio="xMidYMid meet">
<metadata>
Created by potrace 1.10, written by Peter Selinger 2001-2011
</metadata>
<g transform="translate(0.000000,300.000000) scale(0.100000,-0.100000)"
fill="currentColor" stroke="none">
<path d="M1230 2973 c-109 -19 -295 -80 -397 -131 -280 -141 -534 -395 -675
-675 -53 -106 -113 -290 -132 -406 -21 -127 -21 -396 0 -522 85 -499 448 -944
920 -1129 182 -71 284 -91 496 -97 119 -4 216 -1 270 6 655 93 1176 614 1269
1269 7 54 10 151 6 270 -6 212 -26 314 -97 496 -76 194 -180 348 -344 511
-218 217 -491 359 -785 409 -121 21 -411 20 -531 -1z m514 -38 c139 -24 256
-63 393 -130 400 -196 689 -563 784 -997 105 -483 -42 -980 -396 -1333 -164
-164 -337 -274 -551 -348 -510 -178 -1078 -55 -1472 318 -208 197 -350 441
-417 718 -87 359 -31 738 157 1067 198 345 545 600 938 689 185 42 381 48 564
16z"/>
<path d="M1280 2886 c-691 -122 -1180 -695 -1180 -1381 0 -221 42 -409 135
-602 139 -291 357 -514 640 -655 117 -59 207 -91 336 -120 139 -31 426 -33
559 -4 568 123 983 538 1106 1106 29 133 27 420 -4 559 -124 551 -539 964
-1092 1086 -101 23 -398 29 -500 11z m463 -21 c179 -31 371 -110 537 -220 100
-66 302 -269 369 -370 258 -392 308 -879 132 -1300 -306 -733 -1149 -1062
-1868 -730 -138 64 -270 159 -393 284 -271 274 -403 590 -403 971 -1 95 5 178
17 240 122 677 728 1169 1406 1145 63 -3 154 -11 203 -20z"/>
<path d="M1438 2811 c16 -10 6 -132 -12 -143 -6 -4 5 -7 24 -7 19 1 27 3 18 6
-19 5 -22 40 -9 96 6 26 8 24 29 -33 13 -33 27 -58 32 -55 4 3 16 27 26 55 10
27 21 50 24 50 12 0 11 -103 -1 -110 -6 -4 3 -9 20 -12 22 -3 28 -1 21 6 -15
15 -13 143 3 149 6 3 0 6 -14 6 -23 1 -30 -6 -49 -55 -13 -30 -26 -52 -30 -47
-4 4 -15 29 -25 56 -15 40 -22 47 -44 47 -18 0 -22 -3 -13 -9z"/>
<path d="M1265 2799 c-16 -4 -43 -10 -59 -13 -24 -6 -26 -9 -14 -19 22 -17 40
-118 25 -136 -10 -12 -9 -13 6 -8 10 4 27 7 38 7 10 0 19 5 19 11 0 5 -4 8 -9
4 -11 -6 -16 1 -25 39 -7 26 -5 28 18 24 27 -5 33 6 16 32 -8 13 -10 12 -10
-2 0 -22 -26 -24 -34 -2 -11 30 -6 44 20 50 18 5 29 1 39 -12 15 -20 19 -10 7
17 -5 12 -14 14 -37 8z"/>
<path d="M1701 2730 c-23 -38 -47 -70 -54 -71 -16 -1 23 -17 43 -18 12 -1 12
1 1 8 -18 12 -4 54 16 47 8 -3 21 -6 28 -6 20 0 30 -41 14 -51 -11 -7 -10 -9
3 -9 9 0 24 -3 33 -6 14 -6 15 -4 6 12 -5 10 -15 52 -22 92 -6 39 -14 72 -19
72 -4 0 -26 -31 -49 -70z m45 -27 c-2 -3 -14 -2 -25 2 -19 6 -19 7 -3 35 l17
30 8 -31 c5 -17 6 -33 3 -36z"/>
<path d="M1019 2721 c-36 -36 -37 -70 -3 -110 34 -41 83 -43 121 -5 21 21 24
32 20 62 -7 43 -47 82 -83 82 -15 0 -38 -12 -55 -29z m99 -25 c21 -43 22 -59
7 -82 -9 -13 -24 -24 -34 -24 -44 0 -87 70 -71 114 14 41 77 36 98 -8z"/>
<path d="M1882 2738 c-19 -19 -14 -44 13 -76 31 -37 24 -64 -14 -60 -20 2 -27
10 -32 33 -5 30 -5 30 -13 6 -17 -49 71 -70 101 -24 13 19 11 24 -17 57 -36
40 -34 69 2 64 14 -2 24 -12 28 -28 5 -22 7 -23 13 -6 4 10 2 25 -4 32 -14 17
-61 18 -77 2z"/>
<path d="M2033 2683 c-20 -8 -15 -51 9 -84 20 -27 21 -31 6 -45 -25 -26 -58
-9 -59 29 0 30 -1 31 -11 9 -14 -29 13 -62 52 -62 51 0 65 41 30 88 -21 29
-19 62 4 62 18 0 36 -22 37 -44 0 -21 0 -21 9 -1 15 37 -32 67 -77 48z"/>
<path d="M830 2634 c-11 -12 -11 -15 1 -12 10 2 15 -8 17 -35 l3 -37 -36 17
c-21 10 -34 22 -31 30 4 9 -2 8 -20 -3 l-24 -17 48 -22 c56 -26 87 -65 69 -85
-7 -7 3 -4 21 6 19 11 27 21 20 23 -26 8 -37 37 -38 94 0 58 -8 69 -30 41z"/>
<path d="M1290 2589 c-118 -26 -202 -55 -290 -99 -476 -239 -713 -784 -564
-1297 169 -584 786 -927 1366 -759 309 90 578 323 709 612 282 629 -75 1361
-745 1529 -140 35 -176 39 -176 19 0 -11 6 -15 20 -11 10 3 52 -1 92 -9 393
-75 712 -357 838 -744 41 -125 54 -230 47 -384 -12 -277 -118 -517 -317 -716
-140 -140 -301 -233 -496 -287 -91 -25 -114 -28 -274 -28 -160 0 -183 3 -274
28 -308 86 -561 288 -698 561 -83 166 -118 311 -118 496 0 399 198 743 546
948 113 67 312 133 406 134 25 0 38 5 38 14 0 17 -5 17 -110 -7z"/>
<path d="M2165 2555 c-33 -25 -66 -44 -73 -45 -17 0 -6 -17 21 -32 19 -10 20
-9 9 4 -10 13 -9 18 3 28 13 11 20 11 40 0 28 -15 33 -45 10 -57 -12 -7 -9
-12 14 -26 28 -16 28 -16 24 6 -3 13 3 50 11 84 26 100 26 100 -59 38z m45 -2
c0 -10 -4 -24 -9 -32 -8 -13 -12 -13 -26 -1 -15 13 -15 15 7 32 29 22 28 22
28 1z"/>
<path d="M642 2501 c-52 -46 -53 -47 -34 -64 19 -17 19 -17 15 6 -3 14 1 28 8
32 15 10 100 -84 94 -103 -3 -7 6 -6 22 5 19 13 23 19 12 21 -7 2 -34 27 -58
54 -37 44 -41 52 -26 60 9 5 23 7 31 4 17 -7 19 8 2 22 -10 7 -27 -3 -66 -37z"/>
<path d="M1340 2520 c-14 -5 -63 -18 -110 -30 -47 -11 -130 -43 -185 -70 -280
-138 -485 -400 -551 -705 -20 -96 -23 -310 -5 -403 113 -575 672 -942 1238
-812 262 61 490 220 635 444 111 172 161 346 161 556 -1 190 -33 324 -117 484
-137 261 -400 459 -691 521 -44 10 -91 20 -103 23 -20 4 -23 1 -20 -19 3 -21
9 -24 44 -26 23 0 77 -11 119 -22 342 -94 596 -342 701 -686 26 -84 28 -103
28 -270 1 -159 -2 -189 -22 -260 -50 -173 -138 -322 -261 -446 -124 -123 -273
-211 -446 -261 -71 -20 -101 -23 -260 -22 -166 0 -187 2 -268 27 -335 103
-587 355 -682 682 -77 268 -42 538 104 790 62 108 226 272 337 338 99 58 253
115 342 125 58 6 67 10 67 27 0 22 -18 27 -55 15z"/>
<path d="M2304 2476 c-55 -24 -64 -97 -18 -137 30 -25 51 -29 71 -13 17 14 16
14 -13 9 -63 -12 -87 59 -38 109 48 47 112 23 100 -38 -5 -29 -5 -30 9 -12 20
27 19 39 -7 64 -31 28 -67 34 -104 18z"/>
<path d="M1500 2440 c0 -6 -4 -9 -9 -5 -10 6 -7 -27 4 -44 3 -5 1 -12 -5 -16
-5 -3 -10 -12 -10 -18 0 -7 4 -6 10 3 7 10 10 -180 9 -564 0 -318 3 -582 8
-586 7 -7 232 -80 247 -80 3 0 6 18 6 40 0 37 -1 39 -20 28 -11 -7 -21 -19
-24 -28 -2 -8 -4 29 -5 82 -1 67 -5 98 -13 101 -10 4 -10 6 0 6 19 1 -11 31
-31 31 -33 0 -87 31 -87 49 0 23 25 45 42 38 8 -3 4 -6 -7 -7 -17 -1 -16 -3 7
-15 15 -8 29 -24 33 -35 4 -14 15 -20 33 -19 23 0 24 2 8 8 -18 7 -18 8 -3 14
10 4 17 17 17 35 0 25 -6 30 -70 55 -38 15 -72 27 -75 27 -3 0 -5 -11 -5 -25
0 -22 2 -24 18 -14 25 16 61 6 95 -26 31 -29 35 -48 10 -43 -10 2 -17 11 -15
21 2 11 -2 15 -13 11 -10 -4 -15 0 -15 10 0 25 -27 30 -55 12 -25 -16 -25 -19
-25 -148 0 -72 -2 -129 -5 -126 -3 2 -5 66 -6 141 0 95 -4 137 -12 141 -9 3
-9 5 1 5 8 1 12 18 12 52 0 31 -4 48 -10 44 -11 -7 -12 -5 -14 50 -1 22 4 46
11 53 18 19 17 38 -1 23 -11 -10 -14 -9 -12 3 1 9 5 19 9 22 10 11 8 26 -2 19
-5 -3 -13 0 -17 6 -5 9 0 10 14 7 12 -4 25 -2 28 3 6 11 24 2 24 -12 0 -5 -5
-8 -11 -7 -6 2 -13 -5 -14 -15 -3 -13 1 -17 11 -13 12 4 14 1 9 -14 -4 -12 -2
-20 5 -20 6 0 9 4 6 9 -3 5 1 11 9 15 8 3 15 11 14 18 0 10 -2 10 -6 0 -9 -23
-22 -2 -13 22 5 14 5 27 -1 33 -6 6 0 19 16 37 l25 27 -45 217 c-25 119 -50
233 -55 252 -5 19 -10 52 -12 73 -2 34 -18 66 -18 37z m38 -212 c1 -7 3 -29 4
-48 2 -19 8 -38 13 -42 6 -4 2 -8 -9 -8 -13 0 -17 5 -13 20 3 11 2 20 -3 20
-6 0 -7 54 -1 68 3 6 8 1 9 -10z m17 -118 c-3 -5 -1 -10 6 -10 6 0 9 -8 6 -20
-3 -10 0 -21 6 -23 7 -2 6 -10 -2 -23 -10 -15 -11 -15 -7 -1 3 11 0 17 -10 17
-12 0 -12 4 -4 20 7 14 7 20 0 20 -5 0 -10 7 -10 15 0 8 5 15 11 15 5 0 7 -4
4 -10z m51 -229 c-4 -5 0 -12 6 -14 8 -3 6 -6 -4 -6 -10 -1 -17 -6 -15 -13 1
-6 -6 -13 -15 -16 -12 -2 -16 3 -15 17 1 12 7 21 14 21 7 0 13 5 13 10 0 6 5
10 11 10 5 0 8 -4 5 -9z m-29 -68 c-4 -3 -1 -13 6 -22 10 -14 10 -14 -4 -3 -9
7 -21 12 -25 11 -18 -3 -25 1 -19 11 3 6 16 10 27 10 12 0 18 -3 15 -7z m93
-450 c0 -17 -9 -16 -56 3 -47 19 -48 20 -40 33 9 13 96 -19 96 -36z m-76 1
c19 -7 22 -74 4 -75 -10 0 -10 -2 0 -6 18 -7 16 -83 -3 -83 -8 0 -15 1 -16 3
-4 10 -8 167 -5 167 2 0 11 -3 20 -6z m57 -24 c19 -11 28 -70 10 -70 -28 0
-41 14 -41 46 0 37 2 39 31 24z m19 -121 c4 -23 10 -33 20 -31 11 2 12 0 4 -7
-7 -8 -19 -8 -42 0 -29 10 -32 15 -32 50 0 36 2 38 23 30 15 -6 24 -19 27 -42z"/>
<path d="M529 2393 c-17 -18 -19 -24 -7 -20 11 4 32 -11 67 -47 48 -52 51 -53
67 -35 12 13 13 19 4 19 -19 0 -105 83 -102 97 4 19 -2 16 -29 -14z"/>
<path d="M2483 2364 c9 -15 -99 -97 -114 -88 -8 4 -8 0 0 -14 14 -26 31 -37
31 -20 0 7 11 21 25 30 23 18 24 17 46 -14 l22 -31 -23 -19 c-13 -10 -29 -17
-37 -14 -9 4 -9 -1 3 -20 16 -23 18 -23 29 -7 20 29 99 81 114 75 10 -3 8 3
-5 21 -17 24 -43 39 -30 18 3 -4 -5 -18 -17 -30 l-23 -21 -23 31 c-22 29 -22
31 -5 50 10 11 24 17 31 15 20 -8 15 9 -9 30 -12 10 -18 14 -15 8z"/>
<path d="M1424 2125 c-27 -118 -50 -210 -52 -205 -2 6 -104 10 -265 10 l-262
0 6 -262 c6 -280 16 -352 66 -492 34 -96 77 -179 128 -252 43 -60 208 -224
226 -224 17 0 9 38 -8 43 -17 4 -17 5 0 6 20 1 24 46 5 54 -10 4 -10 6 0 6 6
1 12 13 12 27 0 14 -4 23 -9 19 -6 -3 -15 3 -20 14 -14 26 -14 31 4 31 9 0 12
-6 9 -15 -4 -8 -1 -15 5 -15 15 0 14 47 -1 53 -10 4 -10 6 0 6 8 1 12 21 12
65 0 42 -4 66 -12 69 -10 4 -10 6 0 6 6 1 12 10 12 20 0 11 -6 22 -12 24 -8 4
-7 6 4 6 9 1 18 -4 20 -9 2 -7 31 -2 76 11 51 16 71 26 68 36 -3 7 -1 13 4 13
6 0 10 -27 10 -59 0 -38 4 -61 13 -64 10 -4 10 -6 0 -6 -17 -1 -19 -382 -3
-412 8 -15 7 -19 -4 -19 -13 0 -16 26 -18 172 -3 142 -6 172 -18 175 -13 4
-13 3 0 -6 8 -6 11 -11 5 -11 -5 0 -20 -3 -32 -6 -14 -4 -23 -2 -23 5 0 6 8 8
18 4 9 -3 14 -3 10 1 -4 5 -23 9 -43 11 -35 2 -35 2 -16 -17 11 -10 27 -18 36
-18 12 0 15 -14 15 -75 0 -69 -2 -76 -22 -85 -14 -5 -17 -9 -7 -9 21 -1 39 19
39 45 0 31 20 41 21 12 1 -13 3 -52 5 -86 l3 -64 -26 7 c-34 8 -80 41 -93 66
-11 20 -5 43 10 34 4 -3 10 16 13 43 3 26 8 59 12 73 6 24 4 27 -23 31 l-30 4
-1 -105 c-1 -57 -4 -108 -6 -112 -10 -15 178 -119 215 -119 26 0 160 69 225
115 90 64 223 209 274 300 25 43 59 116 77 164 58 154 66 210 71 504 l5 267
-261 0 -262 0 7 -37 c8 -44 127 -303 144 -313 9 -6 9 -13 1 -28 -14 -27 -15
-422 -1 -422 6 0 10 -26 10 -59 l0 -59 111 34 c125 38 135 40 117 20 -7 -7
-20 -11 -28 -8 -13 5 -13 3 -1 -11 8 -10 9 -17 3 -17 -6 0 -14 5 -17 10 -3 6
-14 10 -23 10 -13 0 -12 -3 6 -16 12 -8 22 -20 22 -25 0 -6 -13 -1 -29 10 -42
30 -46 26 -9 -9 40 -36 22 -40 -20 -5 -44 37 -47 30 -4 -9 20 -19 34 -37 30
-41 -3 -4 -24 10 -46 29 -22 20 -43 36 -48 36 -5 0 14 -20 41 -45 28 -24 44
-44 37 -45 -7 0 -32 18 -56 40 -24 22 -49 40 -56 40 -6 0 11 -18 38 -40 54
-42 70 -60 52 -60 -6 0 -33 20 -59 45 -26 25 -53 45 -60 45 -8 0 -11 -38 -11
-125 l0 -125 -47 -35 c-27 -19 -88 -56 -138 -80 l-90 -45 -3 305 c-1 168 -6
305 -10 305 -4 -1 -63 -18 -132 -39 l-125 -38 -3 -61 c-2 -35 -8 -62 -13 -62
-6 0 -32 -18 -57 -41 -52 -45 -82 -64 -82 -52 0 5 25 29 55 55 52 44 54 46 30
52 -18 5 -33 -2 -62 -29 -21 -19 -41 -35 -45 -35 -18 0 -6 19 28 45 19 15 33
29 30 32 -2 3 -15 -5 -28 -17 -13 -12 -31 -26 -40 -31 -30 -16 -20 6 13 30 17
13 28 25 25 29 -3 3 -17 -5 -30 -17 -21 -20 -27 -21 -39 -10 -13 12 -13 16 1
33 16 18 16 19 -6 14 -12 -4 -20 -3 -17 2 3 4 -5 10 -17 13 -12 4 -20 8 -17
11 3 3 59 -12 126 -33 l121 -38 7 61 c12 124 16 438 6 469 -9 23 -8 34 2 46
20 23 137 277 138 298 0 17 1 16 8 -1 5 -12 24 57 58 200 28 121 54 227 58
237 4 9 3 17 -2 17 -6 0 -32 -97 -59 -215z m689 -255 c3 -10 4 -115 2 -232 -3
-217 -12 -286 -55 -418 -36 -111 -33 -108 -144 -144 -70 -23 -85 -21 -92 12
-3 15 -12 44 -20 66 -17 44 -19 334 -3 389 5 17 5 35 0 41 -22 29 -132 280
-127 292 6 15 123 21 317 16 105 -3 117 -5 122 -22z m-790 14 c8 -8 -18 -73
-79 -199 l-48 -100 0 -257 c-1 -157 -5 -261 -11 -267 -10 -9 -88 8 -172 39
-75 27 -129 262 -132 579 -1 97 1 184 5 194 5 15 27 17 218 17 117 0 215 -3
219 -6z m-58 -896 c0 -24 -6 -36 -22 -43 -25 -11 -32 -31 -8 -21 28 11 14 -9
-30 -42 -67 -49 -86 -49 -35 -1 l45 42 -44 -31 c-62 -44 -66 -30 -6 25 l50 45
-45 -35 c-58 -44 -70 -50 -70 -38 0 10 110 101 122 101 4 0 5 -7 2 -15 -4 -10
0 -15 15 -15 17 0 20 4 15 30 -4 17 -2 30 3 30 5 0 9 -15 8 -32z m-105 13 c0
-13 -75 -71 -91 -71 -8 0 6 18 31 40 46 40 60 47 60 31z m701 -71 c24 -21 38
-39 31 -40 -7 0 -32 18 -55 40 -55 52 -33 52 24 0z m-2 -34 c14 -14 22 -28 20
-31 -7 -6 -79 54 -79 66 0 14 30 -4 59 -35z m-19 -21 c13 -14 19 -25 14 -25
-12 0 -26 11 -43 33 -21 26 2 20 29 -8z m-612 -12 c-2 -33 -24 -63 -46 -63
-12 0 -9 7 9 27 l24 26 -25 -16 c-43 -29 -47 -18 -6 18 22 19 41 35 43 35 1 0
2 -12 1 -27z"/>
<path d="M453 2308 c-18 -24 -23 -49 -13 -69 13 -23 41 -24 79 -4 24 12 31 12
47 0 26 -19 7 -50 -30 -50 -29 1 -35 -10 -10 -19 23 -9 53 11 60 41 13 52 -29
77 -83 49 -33 -17 -57 -8 -51 20 2 13 12 19 31 19 30 -1 36 9 11 19 -23 9 -30
8 -41 -6z"/>
<path d="M2610 2188 c0 -10 -15 -25 -32 -34 -77 -38 -96 -81 -58 -122 27 -28
49 -28 109 3 27 13 51 21 55 18 13 -14 5 14 -10 33 -13 16 -15 16 -10 2 4 -14
-7 -24 -45 -43 -57 -29 -86 -26 -95 10 -8 32 -1 41 55 70 36 18 51 21 60 12
17 -17 13 -1 -9 35 -13 21 -20 27 -20 16z"/>
<path d="M372 2163 c-19 -7 -55 -83 -40 -83 23 0 117 -55 121 -70 2 -9 10 -2
21 20 10 19 13 30 6 23 -9 -9 -26 -4 -71 20 -61 34 -71 50 -40 66 25 14 56 -9
49 -36 -4 -16 -1 -19 26 -16 58 7 74 13 80 28 4 12 0 14 -19 10 -14 -3 -36 -7
-50 -10 -19 -4 -25 -1 -25 13 0 32 -26 48 -58 35z"/>
<path d="M285 2007 c-15 -42 -35 -100 -35 -103 0 -2 7 -1 15 3 20 7 106 -24
122 -45 11 -13 13 -13 19 4 4 10 13 34 21 53 13 34 5 61 -20 61 -7 0 -7 -4 1
-12 14 -14 15 -37 3 -57 -6 -9 -18 -11 -40 -6 -35 7 -38 16 -15 39 8 9 11 16
6 16 -6 0 -19 3 -29 6 -14 5 -15 4 -4 -4 8 -6 11 -17 8 -26 -5 -12 -12 -13
-36 -5 -25 9 -29 14 -22 32 5 12 18 23 30 25 11 2 21 7 21 12 0 13 -41 19 -45
7z"/>
<path d="M2668 1979 c-10 -6 -18 -22 -18 -38 0 -41 -24 -69 -47 -55 -24 15
-29 45 -9 56 24 13 20 31 -4 18 -40 -22 -9 -100 40 -100 22 0 40 28 40 63 0
14 7 30 16 37 12 11 18 10 32 -4 14 -14 15 -19 4 -37 -11 -18 -11 -20 0 -17
20 7 22 47 2 69 -19 21 -31 23 -56 8z"/>
<path d="M227 1834 c-3 -17 -1 -21 7 -15 8 7 28 -1 61 -22 l50 -31 -59 -9
c-43 -7 -60 -7 -66 3 -5 8 -9 2 -12 -17 l-4 -29 61 13 c33 7 72 13 88 13 15 0
27 4 27 8 0 5 -33 31 -74 59 -73 49 -74 50 -79 27z"/>
<path d="M1361 1853 c-1 -6 -31 -74 -68 -151 -63 -131 -76 -172 -52 -172 6 0
7 6 2 15 -6 10 13 60 59 156 38 78 67 147 64 153 -3 8 -5 7 -5 -1z"/>
<path d="M2761 1843 c-1 -17 -133 -45 -144 -30 -5 7 -7 2 -3 -13 2 -14 8 -42
11 -62 6 -33 11 -38 34 -38 24 1 25 1 6 12 -24 14 -35 28 -35 49 0 15 73 39
120 39 22 0 34 -49 14 -57 -22 -8 -16 -22 6 -16 18 5 19 11 14 42 -9 47 -22
89 -23 74z"/>
<path d="M1615 1830 c-3 -5 -1 -10 4 -10 17 0 13 -26 -5 -41 -15 -12 -14 -14
7 -20 13 -3 23 -11 22 -17 -3 -14 43 -62 51 -54 4 3 5 -8 2 -24 -2 -16 -1 -21
1 -11 2 9 9 15 14 11 5 -3 -3 20 -18 50 -19 39 -30 52 -36 43 -6 -8 -7 -4 -4
11 3 14 1 20 -6 15 -6 -4 -8 0 -4 10 12 31 -12 63 -28 37z"/>
<path d="M1387 1785 c3 -9 11 -14 17 -12 6 3 18 -2 28 -10 11 -10 18 -11 23
-3 4 6 1 9 -7 8 -7 -2 -12 2 -11 9 2 7 -6 10 -17 8 -11 -2 -20 0 -20 6 0 5 -4
9 -10 9 -5 0 -7 -7 -3 -15z"/>
<path d="M1447 1733 c-4 -3 -25 -6 -46 -5 -32 2 -44 -3 -60 -24 -12 -15 -21
-37 -21 -50 0 -12 -6 -24 -12 -27 -10 -3 -8 -10 5 -23 9 -10 17 -13 17 -7 0 6
-6 14 -12 16 -10 4 -10 6 -1 6 12 1 36 -33 28 -40 -2 -2 7 -4 20 -4 15 0 21 4
17 14 -4 10 -1 12 8 6 8 -5 11 -4 7 2 -4 6 0 16 8 23 7 6 11 19 8 27 -4 11 -2
14 5 9 7 -4 14 3 18 19 3 14 10 25 15 25 5 0 5 8 2 18 -6 15 -5 16 13 2 18
-14 18 -14 5 3 -15 19 -15 19 -24 10z m-39 -39 c2 -12 -8 -34 -21 -50 -21 -24
-27 -26 -41 -15 -21 18 -20 33 5 65 24 31 53 31 57 0z"/>
<path d="M1604 1705 c-3 -8 -4 -25 0 -38 6 -26 -8 -55 -18 -38 -4 6 -4 17 0
24 6 9 5 9 -7 0 -8 -6 -18 -11 -22 -11 -5 0 -12 -4 -15 -8 -4 -4 -1 -4 6 0 11
6 16 -4 14 -25 -1 -4 9 -5 21 -2 21 4 21 4 -2 -10 l-24 -15 21 -6 c12 -4 20
-11 17 -16 -3 -4 5 -6 17 -3 17 3 19 2 10 -5 -18 -13 7 -23 40 -15 19 4 20 3
8 -7 -12 -9 -11 -10 9 -5 17 5 22 4 16 -5 -6 -9 -4 -11 5 -5 10 6 10 10 -3 20
-14 10 -14 12 4 23 20 13 24 6 19 -45 -2 -25 6 -28 30 -13 12 8 12 10 -2 15
-15 6 -14 9 3 26 12 12 17 25 12 32 -5 8 -9 5 -11 -10 -2 -13 -8 -23 -14 -23
-6 0 -8 9 -5 20 3 11 1 18 -3 15 -15 -9 -20 13 -10 42 10 26 8 25 -25 -11 -19
-22 -35 -41 -35 -42 0 -1 10 0 23 3 19 4 20 3 4 -7 -22 -14 -67 -3 -46 12 10
7 8 8 -7 3 -28 -7 -61 5 -42 16 7 5 14 13 14 19 1 5 2 14 3 19 0 4 12 6 26 3
46 -8 42 53 -5 78 -16 9 -22 8 -26 -5z"/>
<path d="M2768 1660 c12 -6 22 -18 22 -30 0 -18 -6 -20 -70 -20 -47 0 -70 4
-70 12 0 6 -2 9 -5 6 -3 -3 -2 -19 1 -37 4 -18 10 -28 13 -23 3 6 36 13 74 17
62 7 67 6 67 -12 0 -11 -10 -25 -22 -31 -23 -10 -23 -11 5 -11 24 -1 27 3 27
32 0 17 -3 49 -6 70 -6 32 -10 37 -33 36 -25 0 -26 0 -3 -9z"/>
<path d="M196 1644 c-3 -8 -6 -23 -6 -32 0 -14 2 -14 9 -3 7 10 23 12 72 6 35
-4 67 -12 71 -19 5 -7 8 -5 8 6 0 9 3 24 7 34 5 13 3 15 -8 8 -17 -11 -120 -5
-135 7 -8 6 -14 4 -18 -7z"/>
<path d="M1445 1632 c3 -30 1 -32 -18 -27 -19 5 -20 5 -4 -5 12 -8 22 -8 35
-1 13 8 14 10 2 11 -13 0 -13 1 0 10 9 6 10 10 3 10 -6 0 -14 8 -17 18 -2 9
-3 2 -1 -16z"/>
<path d="M1437 1568 c-6 -15 -123 -62 -135 -54 -5 3 -9 -1 -9 -9 0 -19 -4 -19
69 10 34 14 67 25 75 25 7 0 13 9 13 20 0 23 -6 26 -13 8z"/>
<path d="M191 1525 c0 -16 3 -25 7 -19 4 6 30 14 57 17 l50 5 -50 -44 c-27
-24 -53 -44 -57 -44 -5 0 -8 -12 -8 -27 0 -19 3 -24 9 -15 6 10 28 13 80 10
70 -3 71 -3 71 22 0 19 -3 21 -9 11 -6 -9 -32 -16 -68 -19 l-58 -4 35 31 c19
17 50 41 67 53 18 13 33 27 33 32 0 5 -33 6 -74 2 -56 -5 -75 -3 -79 6 -3 7
-6 0 -6 -17z"/>
<path d="M1720 1471 c0 -5 6 -12 13 -14 10 -4 10 -6 0 -6 -8 -1 -13 -15 -12
-38 1 -21 3 -30 6 -20 2 9 9 17 14 17 13 0 11 -7 -8 -47 -14 -30 -14 -36 -2
-44 10 -6 10 -9 2 -9 -7 0 -13 -11 -13 -24 0 -13 6 -27 13 -29 10 -4 10 -6 0
-6 -16 -1 -17 -51 -2 -51 6 0 9 7 5 15 -3 9 0 15 9 15 8 0 15 9 15 20 0 11 -7
20 -15 20 -8 0 -15 5 -15 11 0 6 6 9 14 6 17 -7 19 30 3 51 -6 8 -6 12 2 12 7
0 11 22 11 59 0 44 -4 60 -16 65 -21 8 -24 8 -24 -3z"/>
<path d="M2783 1469 c9 -5 17 -18 17 -28 0 -17 -7 -18 -67 -13 -38 2 -71 10
-75 16 -5 7 -8 5 -8 -6 0 -9 -3 -25 -6 -35 -4 -12 -3 -14 3 -6 14 19 143 5
143 -15 0 -8 -8 -21 -17 -28 -17 -12 -17 -13 3 -14 18 0 22 8 28 53 9 82 8 87
-16 87 -21 -1 -21 -2 -5 -11z"/>
<path d="M1361 1434 c-19 -24 -27 -44 -17 -44 2 0 20 7 40 15 24 10 36 22 36
35 0 29 -34 25 -59 -6z"/>
<path d="M1361 1384 c-50 -22 -25 -38 27 -17 43 16 56 34 25 32 -10 0 -33 -7
-52 -15z"/>
<path d="M1411 1361 c-13 -8 -23 -71 -11 -71 19 1 31 21 28 48 -2 24 -6 29
-17 23z"/>
<path d="M1358 1339 c-18 -10 -26 -69 -10 -69 21 1 33 20 30 48 -3 26 -6 29
-20 21z"/>
<path d="M200 1318 c0 -15 5 -30 10 -33 6 -3 10 0 10 9 0 20 94 40 121 26 21
-12 26 -52 7 -68 -23 -18 -112 -32 -120 -19 -5 7 -8 1 -8 -15 0 -15 5 -30 10
-33 6 -3 10 -2 10 3 0 5 27 15 60 21 67 13 85 33 75 82 -10 42 -41 54 -107 41
-39 -7 -55 -7 -60 1 -5 7 -8 0 -8 -15z"/>
<path d="M2630 1300 c-18 -33 -12 -69 16 -86 25 -17 26 -16 64 21 40 40 60 39
60 -1 0 -18 -5 -24 -21 -24 -11 0 -17 -4 -14 -10 12 -19 35 -10 46 16 7 20 6
32 -6 50 -21 32 -43 30 -81 -7 -39 -38 -67 -34 -62 8 2 19 10 29 28 33 25 6
25 6 2 12 -16 4 -25 1 -32 -12z"/>
<path d="M1411 1281 c-18 -12 -22 -81 -5 -81 15 0 27 37 22 69 -2 15 -7 18
-17 12z"/>
<path d="M1358 1259 c-18 -10 -27 -79 -10 -79 22 1 33 20 30 53 -3 31 -5 34
-20 26z"/>
<path d="M1352 1108 c-35 -11 -61 -22 -59 -24 2 -3 37 6 78 20 41 13 67 24 59
24 -8 0 -43 -9 -78 -20z"/>
<path d="M1564 1097 c-1 -20 2 -24 20 -20 17 4 18 3 6 -6 -12 -9 -9 -10 15 -5
23 4 27 3 15 -5 -12 -9 -8 -10 15 -5 23 4 27 3 15 -5 -12 -9 -9 -10 14 -5 19
5 27 3 22 -4 -4 -6 2 -8 14 -5 11 3 20 13 20 22 0 15 -25 25 -140 58 -10 3
-15 -4 -16 -20z m88 -13 c32 -9 58 -21 58 -26 0 -6 -6 -8 -12 -6 -7 3 -37 13
-65 22 -29 10 -53 19 -53 22 0 7 11 5 72 -12z"/>
<path d="M1419 1071 c9 -6 -9 -15 -58 -30 l-71 -22 0 -44 c0 -25 5 -45 10 -45
6 0 10 11 10 25 0 56 74 85 95 38 18 -42 35 -27 35 32 0 46 -3 55 -17 55 -14
0 -15 -2 -4 -9z"/>
<path d="M1605 1004 c-9 -10 -14 -25 -12 -35 3 -10 1 -20 -4 -23 -5 -2 -4 -3
3 -2 8 2 12 13 10 27 l-4 24 22 -23 c16 -17 25 -21 30 -12 5 8 9 9 11 1 2 -6
9 -7 18 -2 10 6 10 13 2 29 -13 24 -43 38 -34 17 3 -8 9 -13 13 -10 4 3 11 -2
14 -10 4 -11 0 -15 -12 -13 -20 3 -42 29 -36 40 9 14 -4 9 -21 -8z"/>
<path d="M1653 932 c-28 -15 -33 -23 -33 -54 0 -29 3 -36 15 -32 9 4 15 19 15
36 0 19 8 37 23 49 27 22 22 23 -20 1z"/>
<path d="M1720 827 l5 -82 3 74 c2 41 -1 78 -5 82 -4 4 -6 -29 -3 -74z"/>
<path d="M1650 816 c0 -21 -4 -27 -15 -22 -9 3 -15 0 -15 -8 0 -9 8 -12 23 -9
18 4 19 3 7 -6 -13 -9 -12 -11 3 -11 15 0 17 6 11 38 -8 46 -14 54 -14 18z"/>
<path d="M990 362 c0 -36 59 -68 75 -42 11 17 37 11 33 -7 -2 -10 -10 -17 -16
-15 -7 1 -12 -3 -12 -9 0 -6 8 -9 18 -7 20 4 29 46 10 52 -7 2 -22 7 -33 12
-11 4 -31 6 -44 5 -18 -2 -22 1 -18 13 4 9 2 16 -3 16 -6 0 -10 -8 -10 -18z"/>
<path d="M1395 340 c-15 -17 -16 -24 -6 -47 10 -22 10 -28 -3 -35 -35 -20 -11
-68 34 -68 46 0 65 37 35 70 -14 15 -14 18 0 30 21 17 19 47 -4 60 -27 14 -35
13 -56 -10z m53 -14 c2 -9 1 -24 -2 -33 -6 -14 -9 -14 -26 2 -23 21 -26 41 -7
48 19 8 32 2 35 -17z m-2 -111 c-8 -22 -50 -16 -54 8 -2 10 2 25 9 33 11 13
15 13 32 -5 12 -11 17 -26 13 -36z"/>
<path d="M1572 340 c-42 -26 -69 -81 -56 -117 19 -53 96 -46 102 10 5 39 -15
60 -52 54 l-29 -4 41 38 c46 43 44 49 -6 19z m20 -84 c14 -32 4 -56 -22 -56
-26 0 -46 46 -29 66 17 21 38 17 51 -10z"/>
<path d="M1965 350 c-25 -6 -26 -8 -7 -9 13 0 20 -5 17 -11 -3 -5 -19 -7 -34
-4 -16 3 -31 1 -35 -4 -3 -6 2 -8 13 -5 10 3 22 0 25 -6 12 -19 66 15 66 41 0
9 -2 9 -45 -2z"/>
<path d="M1660 325 c-7 -9 -10 -18 -6 -22 3 -3 6 -1 6 5 0 7 9 12 20 12 24 0
27 -32 5 -50 -14 -11 -13 -14 7 -24 15 -7 23 -21 23 -36 0 -21 -4 -25 -27 -23
-16 1 -28 -2 -28 -8 0 -16 46 -10 63 9 24 26 22 63 -3 69 -23 6 -24 7 -8 32
24 39 -23 72 -52 36z"/>
<path d="M1283 313 c14 -4 17 -11 13 -26 -3 -12 -6 -32 -6 -44 0 -15 -6 -23
-17 -24 -12 -1 -10 -4 7 -9 36 -11 59 -12 42 -1 -10 6 -11 22 -6 59 l7 52 -29
-1 c-19 -1 -23 -3 -11 -6z"/>
</g>
</svg>
