<?xml version="1.0" standalone="no"?>
<!DOCTYPE svg PUBLIC "-//W3C//DTD SVG 20010904//EN"
 "http://www.w3.org/TR/2001/REC-SVG-20010904/DTD/svg10.dtd">
<svg version="1.0" xmlns="http://www.w3.org/2000/svg"
 width="300.000000pt" height="300.000000pt" viewBox="0 0 300.000000 300.000000"
 preserveAspectRatio="xMidYMid meet">
<metadata>
Created by potrace 1.10, written by Peter Selinger 2001-2011
</metadata>
<g transform="translate(0.000000,300.000000) scale(0.050000,-0.050000)"
fill="currentColor" stroke="none">
<path d="M2672 5840 c-2393 -302 -3380 -3218 -1653 -4886 1810 -1749 4828
-470 4828 2046 0 1702 -1507 3051 -3175 2840z m348 -200 c0 -29 -13 -40 -50
-40 -49 0 -50 -3 -50 -158 0 -139 -5 -159 -39 -167 -56 -15 -61 -3 -61 158 l0
147 -60 0 c-51 0 -60 8 -60 50 0 49 3 50 160 50 147 0 160 -3 160 -40z m315
27 c83 -22 57 -87 -35 -87 -103 0 -110 -50 -10 -69 112 -21 102 -101 -11 -85
-75 10 -81 7 -75 -33 5 -34 22 -44 81 -49 131 -11 105 -84 -30 -84 -159 1
-161 4 -145 227 l15 193 82 0 c46 0 103 -6 128 -13z m-728 -62 c-7 -30 -24
-88 -38 -128 -17 -49 -20 -98 -9 -149 20 -87 12 -108 -39 -108 -38 0 -61 37
-61 101 0 21 -40 87 -90 148 -106 130 -104 124 -39 136 41 8 60 -3 97 -57 47
-69 72 -70 72 -3 0 61 38 115 81 115 33 0 38 -9 26 -55z m1151 -27 c103 -36
75 -90 -41 -81 -78 5 -98 -1 -125 -40 -61 -88 -16 -197 82 -197 50 0 84 -50
54 -80 -31 -31 -175 15 -223 70 -143 166 39 402 253 328z m-1618 -209 c37
-118 54 -148 79 -138 94 36 141 34 141 -7 0 -31 -26 -49 -117 -80 l-118 -40
-65 190 c-55 157 -61 193 -38 208 55 35 72 16 118 -133z m1899 112 c26 -16 25
-28 -4 -90 l-34 -71 64 -27 c64 -27 65 -27 95 39 31 70 50 80 99 49 42 -26
-117 -371 -171 -371 -40 0 -46 36 -20 131 13 45 -72 126 -98 95 -3 -3 -20 -35
-38 -71 -35 -69 -46 -75 -90 -47 -32 21 -19 63 82 267 59 120 67 126 115 96z
m-2143 -132 c172 -121 111 -390 -89 -389 -123 1 -207 92 -207 224 0 154 174
250 296 165z m2604 -119 c27 -24 30 -51 18 -155 -18 -155 -19 -154 58 -44 56
79 69 88 105 69 42 -23 -1 -102 -166 -306 -83 -103 -127 -38 -103 153 11 84
18 153 17 153 -1 0 -36 -49 -77 -109 -67 -97 -80 -106 -114 -85 -46 28 -53 11
82 199 117 164 128 172 180 125z m-3000 -130 c52 -52 51 -141 -2 -208 l-43
-54 43 -46 c42 -44 42 -46 5 -80 -38 -34 -283 214 -283 286 0 85 218 164 280
102z m1896 -32 c2150 -443 2285 -3486 181 -4095 -1739 -504 -3279 1313 -2488
2937 419 862 1387 1348 2307 1158z m1498 -160 c23 -61 -265 -325 -308 -282
-33 32 -28 41 104 174 142 143 182 164 204 108z m186 -228 c79 -42 131 -142
90 -173 -33 -23 -41 -20 -73 33 -45 73 -123 80 -191 17 -57 -54 -58 -96 -4
-165 57 -72 18 -136 -47 -78 -197 179 -6 490 225 366z m-4115 -198 c18 -47 37
-60 101 -68 99 -14 122 -35 87 -83 -23 -32 -35 -34 -94 -14 -102 36 -149 -17
-61 -69 70 -41 72 -47 37 -94 -23 -31 -40 -24 -190 76 l-165 111 31 61 c77
148 212 191 254 80z m-317 -385 c-24 -46 -26 -67 -8 -84 25 -25 80 31 80 81 0
35 58 33 72 -2 6 -16 0 -49 -13 -74 -20 -38 -18 -49 13 -72 33 -24 39 -19 64
44 26 64 76 91 109 58 9 -8 -71 -212 -95 -244 -7 -8 -337 137 -359 158 -39 37
83 242 129 218 38 -20 39 -25 8 -83z m4840 -69 c22 -57 14 -63 -169 -136 -185
-74 -219 -77 -219 -14 0 25 48 55 175 108 204 85 197 83 213 42z m-4975 -266
c-11 -57 -10 -59 129 -93 138 -33 173 -61 152 -117 -9 -23 -34 -21 -148 10
-152 43 -186 39 -186 -23 0 -36 -55 -42 -94 -11 -4 4 47 217 64 267 20 58 96
28 83 -33z m5072 -7 c5 -32 -19 -73 -84 -143 -89 -94 -89 -97 -34 -84 173 41
177 41 170 -9 -6 -41 -361 -165 -387 -135 -43 50 -23 97 80 194 61 58 95 100
75 95 -211 -62 -218 -62 -228 -3 -6 34 15 46 153 83 212 58 245 58 255 2z
m-5178 -387 c23 -8 26 -23 14 -56 -28 -74 13 -113 55 -52 88 128 153 151 224
80 69 -69 42 -275 -32 -247 -23 10 -28 30 -18 88 7 43 4 80 -7 87 -21 13 -33
3 -106 -94 -90 -121 -239 -27 -209 132 14 75 25 83 79 62z m5233 -108 c57 -57
58 -220 1 -220 -30 0 -40 16 -45 70 -8 93 -37 93 -81 2 -48 -98 -116 -129
-184 -85 -89 59 -100 238 -15 250 43 6 45 1 34 -62 -23 -120 40 -141 88 -29
52 121 127 149 202 74z m-4911 -382 c17 -149 39 -133 -204 -150 l-205 -14 0
133 c0 120 4 133 40 133 33 0 40 -13 40 -80 0 -67 7 -80 40 -80 33 0 40 13 40
80 0 67 7 80 40 80 32 0 40 -13 40 -70 0 -57 8 -70 40 -70 33 0 40 13 40 80 0
144 71 110 89 -42z m4951 -55 c0 -166 -18 -223 -72 -223 -42 0 -46 7 -35 60
12 59 11 60 -75 60 -172 1 -238 20 -238 72 0 46 4 47 165 42 157 -4 165 -2
171 41 14 98 84 54 84 -52z m-4905 -301 c23 -232 -286 -317 -393 -108 -38 75
-28 166 18 166 28 0 40 -13 40 -46 0 -120 136 -178 220 -94 44 44 50 84 20
140 -16 29 -12 42 15 58 50 28 69 0 80 -116z m4665 -3 c219 -48 202 -39 187
-96 -13 -49 2 -50 -272 10 -121 27 -135 35 -135 79 0 58 -12 58 220 7z m-4626
-351 c-65 -56 -74 -119 -14 -100 22 6 57 17 78 24 33 10 85 -61 59 -80 -6 -4
-288 -122 -349 -146 -28 -10 -88 134 -88 212 0 73 41 107 120 99 34 -4 68 3
76 14 8 11 41 41 74 66 l59 46 20 -44 c16 -36 10 -52 -35 -91z m4634 32 c15 0
32 18 38 40 10 41 63 55 83 22 10 -17 -21 -134 -65 -245 -31 -78 -112 -57 -94
24 12 53 7 57 -119 99 -143 47 -160 61 -141 119 12 37 16 37 141 -10 72 -27
142 -49 157 -49z m-159 -286 c126 -68 141 -86 111 -134 -16 -26 -36 -20 -137
35 -129 71 -198 82 -216 35 -16 -42 20 -80 145 -151 114 -65 118 -71 89 -118
-46 -73 -321 123 -321 228 0 170 132 212 329 105z m-4224 -115 c94 -102 65
-242 -65 -309 -193 -100 -388 113 -257 280 95 120 227 132 322 29z m3864 -291
c106 -86 116 -90 149 -60 35 32 102 26 102 -8 0 -20 -150 -211 -180 -230 -45
-28 -85 32 -48 72 40 45 28 63 -113 171 -81 61 -94 80 -77 110 28 52 41 48
167 -55z m-3603 -51 c16 -25 5 -55 -53 -136 l-75 -103 114 72 c230 148 218
-25 -26 -348 -3 -5 -24 8 -46 28 -39 35 -39 36 30 130 94 127 89 133 -40 48
-91 -61 -115 -69 -140 -48 -42 35 -39 50 30 150 80 117 76 123 -33 48 -90 -62
-143 -64 -160 -7 -7 24 314 210 351 204 15 -3 37 -20 48 -38z m3439 -212 l136
-152 -96 -85 c-117 -104 -203 -81 -100 27 72 75 44 139 -30 69 -90 -84 -151
-34 -66 55 72 76 21 136 -56 64 -51 -48 -75 -53 -106 -22 -19 19 140 201 173
197 6 -1 71 -70 145 -153z m-2855 -405 c19 -30 -7 -95 -44 -109 -93 -35 -163
71 -87 132 45 37 100 26 131 -23z m2311 -1 c25 -47 25 -51 -12 -88 -48 -47
-107 -38 -134 21 -44 98 95 162 146 67z m-1682 -116 c-2 -127 -75 -353 -111
-346 -57 10 -57 12 -24 165 29 137 29 141 -8 131 -30 -8 -37 -1 -32 33 10 72
177 88 175 17z m1088 26 c12 -30 -55 -69 -119 -69 -17 0 -25 -9 -18 -20 7 -11
35 -20 62 -20 56 0 148 -81 148 -131 0 -61 -111 -149 -188 -149 -100 0 -106
74 -7 84 50 5 66 17 71 51 7 47 -5 52 -100 46 -107 -7 -103 205 4 225 100 17
136 13 147 -17z m-738 -60 c39 -40 40 -127 2 -142 -26 -10 -26 -14 0 -40 43
-44 36 -120 -15 -156 -133 -93 -327 37 -224 151 25 28 27 43 8 78 -56 105 139
198 229 109z m387 -4 c-3 -19 -26 -38 -50 -41 -74 -11 -96 -57 -27 -57 82 0
121 -40 121 -123 0 -96 -48 -144 -142 -144 -162 0 -217 205 -90 332 77 77 201
99 188 33z"/>
<path d="M1713 5267 c-49 -50 32 -227 104 -227 87 0 109 102 42 187 -39 50
-115 70 -146 40z"/>
<path d="M1351 5021 c-13 -21 29 -101 53 -101 22 0 52 67 42 95 -11 29 -78 34
-95 6z"/>
<path d="M1861 4449 c-78 -34 -241 -163 -241 -190 0 -30 182 -22 296 12 57 17
104 35 104 41 0 13 -79 168 -85 167 -3 0 -36 -14 -74 -30z"/>
<path d="M4019 4405 c-16 -41 -32 -81 -35 -89 -11 -23 197 -76 300 -76 115 0
119 16 26 98 -162 141 -254 163 -291 67z"/>
<path d="M2683 4378 c-230 -79 -212 -162 41 -192 l96 -12 0 123 c0 68 -7 122
-15 121 -8 -2 -63 -19 -122 -40z"/>
<path d="M3180 4299 l0 -125 96 12 c242 28 271 119 60 184 -47 14 -102 33
-121 40 -31 13 -35 0 -35 -111z"/>
<path d="M3540 4290 c0 -77 38 -136 41 -65 1 14 11 5 23 -20 30 -62 60 -57 35
6 -10 29 -14 74 -7 100 13 50 -20 70 -39 24 -6 -15 -10 -11 -11 10 -4 79 -42
28 -42 -55z"/>
<path d="M2314 4328 c-22 -22 -17 -188 6 -188 11 0 20 20 21 45 0 44 1 44 30
6 32 -42 32 -43 34 64 2 73 -49 114 -91 73z"/>
<path d="M3683 4259 c-3 -91 22 -139 71 -139 17 0 26 29 26 90 0 50 -9 90 -20
90 -11 0 -20 -33 -20 -74 0 -97 -35 -63 -45 44 l-8 80 -4 -91z"/>
<path d="M2240 4261 c0 -21 -9 -44 -20 -51 -11 -7 -20 2 -20 19 0 17 -9 31
-20 31 -11 0 -20 -40 -20 -90 0 -49 9 -90 20 -90 11 0 20 17 20 39 0 21 9 44
20 51 11 7 20 -7 20 -30 0 -23 9 -37 20 -30 11 7 20 52 20 101 0 49 -9 89 -20
89 -11 0 -20 -17 -20 -39z"/>
<path d="M3800 4181 c0 -43 9 -84 20 -91 11 -7 20 8 21 34 0 40 4 37 29 -19
39 -90 50 -82 49 40 0 92 -4 101 -27 70 -26 -34 -28 -34 -38 5 -18 69 -54 44
-54 -39z"/>
<path d="M2085 4227 c-37 -15 -33 -187 4 -187 38 0 58 34 26 45 -20 7 -20 15
1 40 21 25 21 33 0 43 -21 9 -21 14 -1 24 54 25 26 57 -30 35z"/>
<path d="M1940 4100 c0 -103 8 -114 60 -80 20 13 22 19 5 20 -16 0 -25 29 -25
80 0 44 -9 80 -20 80 -11 0 -20 -45 -20 -100z"/>
<path d="M3940 4172 c0 -15 14 -38 30 -52 39 -32 38 -60 -1 -60 -17 0 -26 -9
-19 -20 7 -11 30 -20 51 -20 47 0 53 64 9 100 -16 14 -30 34 -30 45 0 10 14
14 30 8 17 -7 30 -3 30 8 0 10 -22 19 -50 19 -29 0 -50 -11 -50 -28z"/>
<path d="M4077 4090 c8 -104 63 -131 63 -32 0 32 5 73 12 90 9 24 0 32 -35 32
-44 0 -47 -7 -40 -90z"/>
<path d="M2760 4002 c0 -91 45 -141 97 -109 39 25 56 142 24 174 -15 15 -21 6
-21 -31 0 -69 -20 -118 -42 -105 -10 6 -18 42 -18 80 0 38 -9 69 -20 69 -11 0
-20 -35 -20 -78z"/>
<path d="M3113 4067 c-29 -30 -14 -187 18 -187 94 0 148 113 85 176 -26 26
-81 32 -103 11z"/>
<path d="M2940 3970 c0 -89 39 -131 41 -45 l2 45 21 -45 c34 -71 56 -53 56 45
0 50 -9 90 -20 90 -11 0 -20 -16 -21 -35 0 -33 -1 -33 -21 0 -35 60 -58 38
-58 -55z"/>
<path d="M1527 3687 c-18 -72 8 -546 39 -707 l24 -130 1400 0 1400 0 26 120
c24 110 60 770 42 770 -4 0 -44 -14 -88 -29 -61 -23 -199 -30 -590 -31 -528
-1 -653 -15 -743 -80 -46 -33 -57 -35 -78 -9 -59 71 -210 89 -743 89 -415 0
-532 6 -589 30 -91 38 -84 39 -100 -23z m813 -424 l0 -198 -115 -13 c-63 -8
-137 -16 -165 -18 l-50 -4 -5 210 -6 210 171 5 170 5 0 -197z m375 -23 l-5
-210 -50 5 c-27 2 -97 10 -155 17 l-105 14 0 197 0 198 160 -6 161 -5 -6 -210z
m865 23 l0 -197 -105 -14 c-58 -7 -127 -15 -155 -17 l-50 -5 -5 210 -6 210
161 5 160 6 0 -198z m395 -23 l-5 -210 -50 4 c-27 2 -102 10 -165 18 l-115 13
0 198 0 197 170 -5 171 -5 -6 -210z"/>
<path d="M1620 2752 c0 -53 124 -381 205 -542 232 -462 657 -923 1088 -1181
l84 -49 186 124 c531 352 1177 1255 1177 1644 0 29 -134 32 -1370 32 -1170 0
-1370 -4 -1370 -28z m648 -83 c8 -30 0 -78 -20 -121 -81 -170 29 -557 240
-843 123 -167 128 -257 6 -120 -46 53 -100 95 -120 95 -66 0 -171 76 -173 125
-1 8 27 15 61 15 79 0 68 42 -17 64 -107 28 -177 171 -75 151 70 -13 62 27
-15 75 -64 40 -115 136 -88 164 8 8 32 4 54 -10 50 -31 59 -30 59 5 0 16 -19
40 -42 52 -54 29 -109 156 -80 185 15 15 37 7 73 -27 l52 -48 -14 104 c-21
157 65 273 99 134z m1544 -115 l-12 -117 53 42 c110 87 116 -37 7 -149 -75
-78 -81 -125 -9 -78 27 18 56 28 63 20 27 -26 -27 -123 -89 -162 -83 -52 -83
-86 -2 -74 l64 10 -39 -68 c-25 -43 -63 -75 -103 -87 -87 -26 -102 -71 -24
-71 32 0 59 -9 59 -21 0 -39 -105 -119 -157 -119 -35 0 -77 -29 -136 -95 -118
-131 -122 -48 -5 100 197 249 350 755 256 849 -24 24 -30 151 -8 186 39 64 95
-48 82 -166z m-652 94 c0 -16 -18 -28 -40 -28 -63 0 -48 -69 28 -127 38 -29
88 -85 113 -124 l44 -72 -50 -99 -51 -98 70 0 c55 0 68 -7 62 -35 -9 -46 -651
-65 -679 -21 -30 48 -17 56 83 56 64 0 100 9 100 24 0 41 85 116 131 116 25 0
50 14 56 30 7 17 25 30 42 30 23 0 18 17 -20 73 -27 40 -49 79 -49 87 0 9 -20
20 -45 25 -25 5 -62 17 -83 26 -32 13 -37 9 -27 -28 14 -52 -33 -106 -76 -90
-28 11 -120 164 -105 176 51 43 105 53 127 24 21 -30 28 -28 75 15 29 27 88
54 133 62 44 7 86 22 93 33 15 25 68 -18 68 -55z m-820 -204 c0 -58 -62 -134
-82 -101 -26 40 -22 112 7 124 50 20 75 12 75 -23z m1368 24 c19 -7 32 -36 32
-69 0 -106 -62 -88 -91 26 -14 56 0 66 59 43z m-1349 -309 c-31 -76 -52 -75
-70 5 -11 49 -6 69 23 90 52 38 80 -17 47 -95z m1341 35 c0 -24 -8 -56 -17
-70 -30 -47 -71 30 -65 122 3 54 82 5 82 -52z m-1260 -184 c0 -112 -44 -143
-76 -52 -16 45 -13 64 11 89 40 39 65 25 65 -37z m1178 -57 c-38 -82 -78 -54
-78 55 0 66 23 78 65 36 32 -32 34 -45 13 -91z m-1082 -145 c-7 -90 -33 -98
-75 -23 -27 47 -26 56 8 94 50 55 75 27 67 -71z m985 70 c26 -48 -11 -165 -49
-152 -27 9 -39 82 -23 146 15 59 42 61 72 6z m-570 -67 c36 -37 52 -42 64 -23
47 80 167 91 236 23 102 -102 47 -275 -142 -448 l-113 -103 -77 61 c-225 178
-295 366 -181 481 72 72 147 75 213 9z"/>
<path d="M809 4418 c-18 -28 41 -87 69 -69 12 7 22 31 22 52 0 43 -68 55 -91
17z"/>
<path d="M605 2086 c-28 -11 -34 -78 -8 -94 9 -6 34 2 55 17 43 32 4 96 -47
77z"/>
<path d="M879 1745 c-78 -40 -111 -154 -50 -177 75 -29 220 59 207 126 -13 66
-81 88 -157 51z"/>
<path d="M2751 641 c-18 -28 4 -61 42 -61 17 0 27 14 23 33 -7 41 -47 57 -65
28z"/>
<path d="M2731 461 c-20 -31 6 -61 52 -61 27 0 38 11 33 35 -7 40 -66 58 -85
26z"/>
<path d="M3143 502 c-41 -26 -19 -91 34 -99 40 -5 45 1 39 49 -7 60 -31 77
-73 50z"/>
</g>
</svg>
